# xmcd
#
# Track frame offsets: 
#        150
#        33376
#        62903
#        98138
#        112989
#        139709
#        169667
#        201669
#        227784
#        243617
#        270396
#        299018
#        330379
#
# Disc length: 4623 seconds
#
# Revision: 0
# Processed by: cddbd v1.5.2PL0 Copyright (c) Steve Scherf et al.
# Submitted via: ExactAudioCopy v0.95b4
#
DISCID=c2120d0d
DTITLE=Various Artist - Poolposition 200512 200601
DYEAR=2006
DGENRE=
TTITLE0=Vinylshakerz - Daddy cool (vinylshakers xxl mix)
TTITLE1=Deejay Goldfinger - Runaway (Dancerockaz rmx)
TTITLE2=Dream Dance Alliance - Ayer´s rock (original mix)
TTITLE3=Astrada - You are the one (radio mix)
TTITLE4=Astrada - You are the one (extended version)
TTITLE5=Miss Distes X feat. Ricardo - African Drum (IC3M4N Reix)
TTITLE6=DJ Roberto K - Everyday (IC3M4N Remix)
TTITLE7=Delgardo feat. Mrs. Rose - Lick my cat (xtended version)
TTITLE8=Silver Star - Love shack (Fashionmix short)
TTITLE9=Silver Star - Love shack (Fashionmix extended)
TTITLE10=Electrolaz - It´s alright (thurst mode mix)
TTITLE11=Accuface - Pure energy (accuface vocal club mix)
TTITLE12=Accuface - Pure energy (accuface vocal radio mix)
EXTD=
EXTT0=
EXTT1=
EXTT2=
EXTT3=
EXTT4=
EXTT5=
EXTT6=
EXTT7=
EXTT8=
EXTT9=
EXTT10=
EXTT11=
EXTT12=
PLAYORDER=
